# xmcd CD database file
#
# Track frame offsets:
#	150
#	28037
#	56287
#	100825
#	127982
#	153771
#	183947
#	210027
#	244422
#	267521
#	295410
#
# Disc length: 4249 seconds
#
# Revision: 0
# Processed by: cddbd v1.5.2PL0 Copyright (c) Steve Scherf et al.
# Submitted via: CDex 1.51
#
DISCID=9010970b
DTITLE=Alan Barnes - Spontaneous Combustion
DYEAR=2006
DGENRE=Jazz
TTITLE0=Spontaneous Combustion
TTITLE1=Rengeo
TTITLE2=Harmon Blues
TTITLE3=Bitter-Jug Waltz
TTITLE4=Griffin-a-ning
TTITLE5=Skylark
TTITLE6=Motoring Along
TTITLE7=Hanging 'Round For Friday
TTITLE8=Funji Mama
TTITLE9=One For D.M.
TTITLE10=Cannonball
EXTD=YEAR: 2006
EXTT0=
EXTT1=
EXTT2=
EXTT3=
EXTT4=
EXTT5=
EXTT6=
EXTT7=
EXTT8=
EXTT9=
EXTT10=
PLAYORDER=
